# xmcd
#
# Track frame offsets:
#	150
#	14012
#	38294
#	52004
#	68442
#	81258
#
# Disc length: 1298 seconds
#
# Revision: 0
# Processed by: cddbd v1.4PL0 Copyright (c) Steve Scherf et al.
# Submitted via: dBpowerAMP V4.0
#
DISCID=41051006
DTITLE=Frontliners - Wanted
DYEAR=1999
DGENRE=Country (TexMex)
TTITLE0=Is Anybody Goin' To San Antone
TTITLE1=4 Aces
TTITLE2=Wasted Days And Wasted Nights
TTITLE3=Did I Tell You
TTITLE4=Streets Of Bakersfield
TTITLE5=He Is A Tejano
EXTD=
EXTT0=
EXTT1=
EXTT2=
EXTT3=
EXTT4=
EXTT5=
PLAYORDER=
